<svg width="100" height="100" viewBox="0 0 100 100" fill="none" xmlns="http://www.w3.org/2000/svg">
<g clip-path="url(#clip0)">
<path d="M78.5161 21.0431V93.3334C78.5161 96.0938 76.2766 98.3333 73.5162 98.3333H10.6007C7.83829 98.3333 5.60083 96.0938 5.60083 93.3334V6.66839C5.60083 3.90803 7.83829 1.66849 10.6007 1.66849H59.1415L78.5161 21.0431Z" fill="#FF5260"/>
<path d="M71.0397 13.5668C71.4038 13.931 71.2863 14.546 70.814 14.7514C39.8146 28.2407 19.1231 56.9894 17.0561 92.2481C16.6105 99.85 5.60046 99.1257 5.60046 91.8885V7.3978C5.60046 4.23348 8.16562 1.66853 11.3297 1.66853C62.1879 1.66853 59.037 1.56436 59.3547 1.88207L71.0397 13.5668Z" fill="#FF5260"/>
<path d="M25.4087 32.9263H22.0525C19.2957 32.9263 17.0526 30.6834 17.0526 27.9264V24.5764C17.0526 21.8194 19.2957 19.5765 22.0525 19.5765H25.4152C28.1824 19.5765 30.4209 21.8179 30.4151 24.5864L30.4088 27.9357C30.4024 30.6878 28.1595 32.9263 25.4087 32.9263Z" fill="white"/>
<path d="M25.3927 57.9175H22.0595C19.3027 57.9175 17.0596 55.6746 17.0596 52.9176V49.5843C17.0596 46.8273 19.3027 44.5844 22.0595 44.5844H25.3927C28.1496 44.5844 30.3926 46.8273 30.3926 49.5843V52.9176C30.3926 55.6746 28.1496 57.9175 25.3927 57.9175Z" fill="white"/>
<path d="M25.3927 82.917H22.0595C19.3027 82.917 17.0596 80.6741 17.0596 77.9171V74.5838C17.0596 71.8268 19.3027 69.5839 22.0595 69.5839H25.3927C28.1496 69.5839 30.3926 71.8268 30.3926 74.5838V77.9171C30.3926 80.6741 28.1496 82.917 25.3927 82.917Z" fill="white"/>
<path d="M78.516 21.0431H64.1413C61.3788 21.0431 59.1414 18.8036 59.1414 16.0432V1.66849L78.516 21.0431Z" fill="#F1FAFC"/>
<path d="M86.4846 46.9697C89.0345 46.9697 91.1782 48.8905 91.4532 51.428L94.3699 78.2087C94.6928 81.167 92.3741 83.7503 89.3991 83.7503C88.411 83.7503 54.935 83.7503 55.2248 83.7503C52.6423 83.7503 50.6344 81.5056 50.9134 78.9439L53.9102 51.4274C54.186 48.8939 56.3245 46.9697 58.873 46.9697H86.4846Z" fill="#FFAA64"/>
<path d="M89.3991 83.7503H55.1852C52.6598 83.7503 50.623 81.5697 50.9144 78.9483L53.9123 51.4238C54.1873 48.8884 56.3268 46.9697 58.8768 46.9697H86.4846C88.9075 46.9697 90.9595 48.703 91.3949 51.0488C91.4505 51.3515 91.248 49.5605 94.3678 78.2108C94.6905 81.1685 92.3707 83.7503 89.3991 83.7503Z" fill="#3798F4"/>
<path d="M87.0721 55.5716C73.3807 55.5716 61.885 65.8777 60.3955 79.4879C60.1309 81.9087 58.0976 83.7503 55.6602 83.7503C55.1968 83.7503 54.0921 83.8078 52.9769 83.1253C51.504 82.2249 50.7373 80.5862 50.9144 78.9483L53.9123 51.4238C54.1873 48.8884 56.3268 46.9697 58.8768 46.9697H86.4846C88.2822 46.9697 89.8758 47.9239 90.7564 49.3745C92.5259 52.2898 90.2216 55.5716 87.0721 55.5716Z" fill="#3798F4"/>
<path d="M96.0265 78.0288L93.111 51.2476C92.742 47.8585 89.8927 45.3027 86.4834 45.3027H84.3595V40.4286C84.3595 33.9896 79.1208 28.7512 72.682 28.7512C66.2429 28.7512 61.0043 33.9898 61.0043 40.4286V45.3025H58.8804C55.4713 45.3025 52.6219 47.8583 52.2528 51.2476L49.3372 78.0288C48.908 81.9712 52.0013 85.4167 55.9648 85.4167H89.3992C93.3583 85.417 96.4563 81.9762 96.0265 78.0288ZM89.3994 82.0837H55.965C53.9767 82.0837 52.4361 80.3633 52.6513 78.3896L55.5669 51.6086C55.7515 49.9141 57.176 48.636 58.8806 48.636H61.0045V52.8424C61.0045 53.7628 61.7507 54.509 62.6711 54.509C63.5915 54.509 64.3378 53.7628 64.3378 52.8424V40.4289C64.3378 35.8279 68.081 32.0846 72.6822 32.0846C77.2831 32.0846 81.0264 35.8279 81.0264 40.4289V45.3027H70.4772C69.5568 45.3027 68.8106 46.049 68.8106 46.9694C68.8106 47.8898 69.5568 48.636 70.4772 48.636H81.0264V52.8424C81.0264 53.7628 81.7726 54.509 82.693 54.509C83.6134 54.509 84.3597 53.7628 84.3597 52.8424V48.636H86.4836C88.1884 48.636 89.6129 49.9139 89.7973 51.6084L92.7129 78.3894C92.9283 80.366 91.385 82.0837 89.3994 82.0837ZM78.5154 91.6668C77.595 91.6668 76.8488 92.4131 76.8488 93.3335C76.8488 95.1714 75.3534 96.6667 73.5155 96.6667H10.6C8.76213 96.6667 7.26674 95.1714 7.26674 93.3335V6.66845C7.26674 4.83056 8.76213 3.33518 10.6 3.33518H57.4741V16.0433C57.4741 19.7192 60.4647 22.7098 64.1407 22.7098H78.5154C79.997 22.7098 80.741 20.9117 79.6939 19.8647C58.8293 -0.999951 60.1799 0.175653 59.4668 0.0341968C59.2366 -0.0114273 61.8909 0.00190578 10.6 0.00190578C6.92404 0.00190578 3.93347 2.99247 3.93347 6.66845V93.3335C3.93347 97.0095 6.92404 100 10.6 100H73.5155C77.1915 100 80.182 97.0095 80.182 93.3335C80.182 92.4129 79.4358 91.6668 78.5154 91.6668ZM64.1407 19.3765C62.3028 19.3765 60.8074 17.8812 60.8074 16.0433V5.69201L74.4919 19.3765H64.1407ZM30.4153 24.5856C30.4207 21.8182 28.183 19.5759 25.4154 19.5759H22.0517C19.2949 19.5759 17.0518 21.8188 17.0518 24.5758V27.9268C17.0518 30.6838 19.2949 32.9267 22.0517 32.9267H25.4089C28.1607 32.9267 30.4038 30.688 30.4088 27.9364L30.4153 24.5856ZM27.0755 27.9301C27.0739 28.8474 26.3262 29.5934 25.4089 29.5934H22.0517C21.1327 29.5934 20.385 28.8457 20.385 27.9268V24.5758C20.385 23.6569 21.1327 22.9092 22.0517 22.9092H25.4154C26.3381 22.9092 27.0837 23.6565 27.082 24.5789L27.0755 27.9301ZM30.3913 49.5843C30.3913 46.8273 28.1482 44.5844 25.3914 44.5844H22.0581C19.3013 44.5844 17.0582 46.8273 17.0582 49.5843V52.9176C17.0582 55.6746 19.3013 57.9175 22.0581 57.9175H25.3914C28.1482 57.9175 30.3913 55.6746 30.3913 52.9176V49.5843ZM27.058 52.9176C27.058 53.8365 26.3103 54.5842 25.3914 54.5842H22.0581C21.1392 54.5842 20.3915 53.8365 20.3915 52.9176V49.5843C20.3915 48.6654 21.1392 47.9177 22.0581 47.9177H25.3914C26.3103 47.9177 27.058 48.6654 27.058 49.5843V52.9176ZM25.3914 69.5839H22.0581C19.3013 69.5839 17.0582 71.8268 17.0582 74.5838V77.9171C17.0582 80.6741 19.3013 82.917 22.0581 82.917H25.3914C28.1482 82.917 30.3913 80.6741 30.3913 77.9171V74.5838C30.3913 71.8268 28.1482 69.5839 25.3914 69.5839ZM27.058 77.9171C27.058 78.836 26.3103 79.5837 25.3914 79.5837H22.0581C21.1392 79.5837 20.3915 78.836 20.3915 77.9171V74.5838C20.3915 73.6649 21.1392 72.9172 22.0581 72.9172H25.3914C26.3103 72.9172 27.058 73.6649 27.058 74.5838V77.9171ZM49.9999 27.918H38.5418C37.6214 27.918 36.8751 27.1718 36.8751 26.2514C36.8751 25.331 37.6214 24.5848 38.5418 24.5848H49.9999C50.9203 24.5848 51.6665 25.331 51.6665 26.2514C51.6665 27.1718 50.9203 27.918 49.9999 27.918ZM45.2083 52.9176H38.5418C37.6214 52.9176 36.8751 52.1713 36.8751 51.2509C36.8751 50.3305 37.6214 49.5843 38.5418 49.5843H45.2083C46.1287 49.5843 46.875 50.3305 46.875 51.2509C46.875 52.1713 46.1287 52.9176 45.2083 52.9176ZM42.7084 74.5838C43.6288 74.5838 44.375 75.3301 44.375 76.2505C44.375 77.1709 43.6288 77.9171 42.7084 77.9171H38.5418C37.6214 77.9171 36.8751 77.1709 36.8751 76.2505C36.8751 75.3301 37.6214 74.5838 38.5418 74.5838H42.7084Z" fill="black"/>
</g>
<defs>
<clipPath id="clip0">
<rect width="100" height="100" fill="white"/>
</clipPath>
</defs>
</svg>
